<svg width="192" height="192" fill="none" xmlns="http://www.w3.org/2000/svg"><path d="M180 93.726c0 40.556-48.363 62.103-84.5 98.274C59.364 155.829 11 134.282 11 93.726c0-8.45 2.476-16.32 6.74-22.925a79.56 79.56 0 0 1-1.634-13.737c-.14-4.593.135-9.062.738-13.364 1.211-8.61 3.692-16.533 6.904-23.806 1.586-3.583 3.38-7.07 5.372-10.444a95.357 95.357 0 0 1 3.071-4.866C33.261 3.007 34.363 1.46 35.546 0c-.215 1.861-.313 3.716-.368 5.561a90.732 90.732 0 0 0 .015 5.501c.12 3.642.446 7.227.977 10.715 1.059 6.973 2.955 13.569 5.665 19.302 1.352 2.867 2.904 5.512 4.62 7.884a42.211 42.211 0 0 0 2.143 2.725 42.64 42.64 0 0 1 4.65-.253C76.584 51.435 95.5 71.09 95.5 71.09s18.918-19.655 42.251-19.655c1.582 0 3.145.087 4.682.257a42.628 42.628 0 0 0 2.146-2.73c1.716-2.37 3.268-5.016 4.62-7.883 2.71-5.733 4.606-12.329 5.666-19.302.53-3.488.857-7.073.976-10.715.06-1.82.067-3.656.016-5.5-.056-1.846-.154-3.7-.368-5.562 1.183 1.46 2.284 3.007 3.353 4.585a95.287 95.287 0 0 1 3.072 4.866 100.562 100.562 0 0 1 5.373 10.443c3.212 7.273 5.693 15.196 6.905 23.806.602 4.302.878 8.771.738 13.364a76.5 76.5 0 0 1-1.669 13.737A42.139 42.139 0 0 1 180 93.726z" fill="#900"/></svg>